<svg width="24" height="24" viewBox="0 0 24 24" fill="none" xmlns="http://www.w3.org/2000/svg">
<g clip-path="url(#clip0_67_220)">
<path d="M8.5 4H5.5C4.39543 4 3.5 4.89543 3.5 6C3.5 7.10457 4.39543 8 5.5 8H8.5C9.60457 8 10.5 7.10457 10.5 6C10.5 4.89543 9.60457 4 8.5 4Z" stroke="#AEB9E1" stroke-width="1.5"/>
<path d="M8 11H6C4.61929 11 3.5 12.1193 3.5 13.5V18.5C3.5 19.8807 4.61929 21 6 21H8C9.38071 21 10.5 19.8807 10.5 18.5V13.5C10.5 12.1193 9.38071 11 8 11Z" stroke="#AEB9E1" stroke-width="1.5"/>
<path d="M18 4H16C14.6193 4 13.5 5.11929 13.5 6.5V11.5C13.5 12.8807 14.6193 14 16 14H18C19.3807 14 20.5 12.8807 20.5 11.5V6.5C20.5 5.11929 19.3807 4 18 4Z" stroke="#AEB9E1" stroke-width="1.5"/>
<path d="M18.5 17H15.5C14.3954 17 13.5 17.8954 13.5 19C13.5 20.1046 14.3954 21 15.5 21H18.5C19.6046 21 20.5 20.1046 20.5 19C20.5 17.8954 19.6046 17 18.5 17Z" stroke="#AEB9E1" stroke-width="1.5"/>
</g>
<defs>
<clipPath id="clip0_67_220">
<rect width="24" height="24" fill="white"/>
</clipPath>
</defs>
</svg>
