<svg width="20" height="22" viewBox="0 0 20 22" fill="none" xmlns="http://www.w3.org/2000/svg">
<g clip-path="url(#clip0_67_222)">
<path d="M15.719 8.52718L17.844 9.67718L18.289 9.92718C19.237 10.4602 19.237 11.8322 18.289 12.3652L12.252 15.7572C11.5644 16.1438 10.7889 16.3469 10 16.3469C9.21118 16.3469 8.43563 16.1438 7.74802 15.7572L1.71002 12.3652C0.762023 11.8322 0.762023 10.4602 1.71002 9.92718L2.15502 9.67718L4.16202 8.52718M16.18 13.6472L18.112 14.6182C19.108 15.1202 19.14 16.5402 18.168 17.0862L12.251 20.4102C11.5634 20.7967 10.7878 20.9997 9.99902 20.9997C9.2102 20.9997 8.43466 20.7967 7.74702 20.4102L1.91702 17.1352C0.927023 16.5792 0.982023 15.1282 2.01002 14.6492L4.16202 13.6462M12.252 10.8112L18.288 7.42018C19.236 6.88718 19.236 5.51418 18.288 4.98118L12.252 1.59018C11.5644 1.20357 10.7889 1.00049 10 1.00049C9.21118 1.00049 8.43563 1.20357 7.74802 1.59018L1.71002 4.98018C0.762023 5.51318 0.762023 6.88618 1.71002 7.41918L7.74702 10.8102C9.14702 11.5972 10.851 11.5972 12.251 10.8102L12.252 10.8112Z" stroke="#AEB9E1" stroke-width="1.5"/>
</g>
<defs>
<clipPath id="clip0_67_222">
<rect width="20" height="22" fill="white"/>
</clipPath>
</defs>
</svg>
